<mxfile host="app.diagrams.net" modified="2023-04-04T15:35:42.472Z" agent="Mozilla/5.0 (Windows NT 10.0; Win64; x64) AppleWebKit/537.36 (KHTML, like Gecko) Chrome/111.0.0.0 Safari/537.36" etag="7pXt2O4gkc91N8hpEuV-" version="21.1.2" type="github">
  <diagram name="Page-1" id="jhdb1bS8tkHZ0nIxmhKl">
    <mxGraphModel dx="2980" dy="1654" grid="0" gridSize="10" guides="1" tooltips="1" connect="1" arrows="1" fold="1" page="0" pageScale="1" pageWidth="850" pageHeight="1100" math="0" shadow="0">
      <root>
        <mxCell id="0" />
        <mxCell id="1" parent="0" />
        <mxCell id="_Su10mAzq5AuRReAk_2e-39" value="" style="edgeStyle=none;curved=1;rounded=0;orthogonalLoop=1;jettySize=auto;html=1;fontSize=12;startSize=8;endSize=8;" edge="1" parent="1" source="_Su10mAzq5AuRReAk_2e-1" target="_Su10mAzq5AuRReAk_2e-2">
          <mxGeometry relative="1" as="geometry" />
        </mxCell>
        <mxCell id="_Su10mAzq5AuRReAk_2e-1" value="Conv 3*3" style="rounded=0;whiteSpace=wrap;html=1;fontSize=16;" vertex="1" parent="1">
          <mxGeometry x="138" y="-175" width="120" height="60" as="geometry" />
        </mxCell>
        <mxCell id="_Su10mAzq5AuRReAk_2e-43" value="" style="edgeStyle=none;curved=1;rounded=0;orthogonalLoop=1;jettySize=auto;html=1;fontSize=12;startSize=8;endSize=8;" edge="1" parent="1" source="_Su10mAzq5AuRReAk_2e-2" target="_Su10mAzq5AuRReAk_2e-14">
          <mxGeometry relative="1" as="geometry" />
        </mxCell>
        <mxCell id="_Su10mAzq5AuRReAk_2e-2" value="Batch Normalization" style="rounded=0;whiteSpace=wrap;html=1;fontSize=16;" vertex="1" parent="1">
          <mxGeometry x="138" y="-51" width="120" height="60" as="geometry" />
        </mxCell>
        <mxCell id="_Su10mAzq5AuRReAk_2e-4" value="Base" style="rounded=0;whiteSpace=wrap;html=1;fontSize=16;" vertex="1" parent="1">
          <mxGeometry x="138" y="-299" width="120" height="60" as="geometry" />
        </mxCell>
        <mxCell id="_Su10mAzq5AuRReAk_2e-5" value="Add" style="rounded=0;whiteSpace=wrap;html=1;fontSize=16;" vertex="1" parent="1">
          <mxGeometry x="138" y="798" width="120" height="60" as="geometry" />
        </mxCell>
        <mxCell id="_Su10mAzq5AuRReAk_2e-49" value="" style="edgeStyle=none;curved=1;rounded=0;orthogonalLoop=1;jettySize=auto;html=1;fontSize=12;startSize=8;endSize=8;" edge="1" parent="1" source="_Su10mAzq5AuRReAk_2e-6" target="_Su10mAzq5AuRReAk_2e-5">
          <mxGeometry relative="1" as="geometry" />
        </mxCell>
        <mxCell id="_Su10mAzq5AuRReAk_2e-6" value="Batch Normalization" style="rounded=0;whiteSpace=wrap;html=1;fontSize=16;" vertex="1" parent="1">
          <mxGeometry x="138" y="681" width="120" height="60" as="geometry" />
        </mxCell>
        <mxCell id="_Su10mAzq5AuRReAk_2e-48" value="" style="edgeStyle=none;curved=1;rounded=0;orthogonalLoop=1;jettySize=auto;html=1;fontSize=12;startSize=8;endSize=8;" edge="1" parent="1" source="_Su10mAzq5AuRReAk_2e-8" target="_Su10mAzq5AuRReAk_2e-6">
          <mxGeometry relative="1" as="geometry" />
        </mxCell>
        <mxCell id="_Su10mAzq5AuRReAk_2e-8" value="Conv 3*3" style="rounded=0;whiteSpace=wrap;html=1;fontSize=16;" vertex="1" parent="1">
          <mxGeometry x="140" y="564" width="120" height="60" as="geometry" />
        </mxCell>
        <mxCell id="_Su10mAzq5AuRReAk_2e-47" value="" style="edgeStyle=none;curved=1;rounded=0;orthogonalLoop=1;jettySize=auto;html=1;fontSize=12;startSize=8;endSize=8;" edge="1" parent="1" source="_Su10mAzq5AuRReAk_2e-9" target="_Su10mAzq5AuRReAk_2e-8">
          <mxGeometry relative="1" as="geometry" />
        </mxCell>
        <mxCell id="_Su10mAzq5AuRReAk_2e-9" value="Activation" style="rounded=0;whiteSpace=wrap;html=1;fontSize=16;" vertex="1" parent="1">
          <mxGeometry x="138" y="448" width="120" height="60" as="geometry" />
        </mxCell>
        <mxCell id="_Su10mAzq5AuRReAk_2e-46" value="" style="edgeStyle=none;curved=1;rounded=0;orthogonalLoop=1;jettySize=auto;html=1;fontSize=12;startSize=8;endSize=8;" edge="1" parent="1" source="_Su10mAzq5AuRReAk_2e-10" target="_Su10mAzq5AuRReAk_2e-9">
          <mxGeometry relative="1" as="geometry" />
        </mxCell>
        <mxCell id="_Su10mAzq5AuRReAk_2e-10" value="Batch Normalization" style="rounded=0;whiteSpace=wrap;html=1;fontSize=16;" vertex="1" parent="1">
          <mxGeometry x="140" y="328" width="120" height="60" as="geometry" />
        </mxCell>
        <mxCell id="_Su10mAzq5AuRReAk_2e-45" value="" style="edgeStyle=none;curved=1;rounded=0;orthogonalLoop=1;jettySize=auto;html=1;fontSize=12;startSize=8;endSize=8;" edge="1" parent="1" source="_Su10mAzq5AuRReAk_2e-11" target="_Su10mAzq5AuRReAk_2e-10">
          <mxGeometry relative="1" as="geometry" />
        </mxCell>
        <mxCell id="_Su10mAzq5AuRReAk_2e-11" value="Conv 3*3" style="rounded=0;whiteSpace=wrap;html=1;fontSize=16;" vertex="1" parent="1">
          <mxGeometry x="140" y="208" width="120" height="60" as="geometry" />
        </mxCell>
        <mxCell id="_Su10mAzq5AuRReAk_2e-44" value="" style="edgeStyle=none;curved=1;rounded=0;orthogonalLoop=1;jettySize=auto;html=1;fontSize=12;startSize=8;endSize=8;" edge="1" parent="1" source="_Su10mAzq5AuRReAk_2e-14" target="_Su10mAzq5AuRReAk_2e-11">
          <mxGeometry relative="1" as="geometry" />
        </mxCell>
        <mxCell id="_Su10mAzq5AuRReAk_2e-14" value="Activation" style="rounded=0;whiteSpace=wrap;html=1;fontSize=16;" vertex="1" parent="1">
          <mxGeometry x="140" y="78" width="120" height="60" as="geometry" />
        </mxCell>
        <mxCell id="_Su10mAzq5AuRReAk_2e-38" value="" style="edgeStyle=segmentEdgeStyle;endArrow=classic;html=1;curved=0;rounded=0;endSize=8;startSize=8;fontSize=12;" edge="1" parent="1" target="_Su10mAzq5AuRReAk_2e-1">
          <mxGeometry width="50" height="50" relative="1" as="geometry">
            <mxPoint x="188" y="-239" as="sourcePoint" />
            <mxPoint x="238" y="-289" as="targetPoint" />
          </mxGeometry>
        </mxCell>
        <mxCell id="_Su10mAzq5AuRReAk_2e-50" value="" style="edgeStyle=elbowEdgeStyle;elbow=horizontal;endArrow=classic;html=1;curved=0;rounded=0;endSize=8;startSize=8;fontSize=12;entryX=0;entryY=0.5;entryDx=0;entryDy=0;exitX=0;exitY=0.5;exitDx=0;exitDy=0;" edge="1" parent="1" source="_Su10mAzq5AuRReAk_2e-4" target="_Su10mAzq5AuRReAk_2e-5">
          <mxGeometry width="50" height="50" relative="1" as="geometry">
            <mxPoint x="-772" y="-327" as="sourcePoint" />
            <mxPoint x="162" y="318" as="targetPoint" />
            <Array as="points">
              <mxPoint x="-23" y="348" />
            </Array>
          </mxGeometry>
        </mxCell>
      </root>
    </mxGraphModel>
  </diagram>
</mxfile>
